<svg xmlns="http://www.w3.org/2000/svg" width="2048" height="1630" preserveAspectRatio="none" style="display: block;" version="1.1" viewBox="0 0 2048 1630"><path fill="rgb(3,161,241)" d="M1130.48 442.479C1132.54 441.787 1145.13 441.788 1148.2 441.931C1238.61 446.122 1326.77 497.791 1393.48 555.99C1415.9 575.552 1430.77 595.044 1449.94 614.94L1450.38 613.9C1431.44 567.917 1392.38 532.398 1355.71 500.118C1352.99 497.725 1348.07 494.909 1346.53 491.857C1356.35 484.054 1446.74 481.108 1464.05 482.081C1592.42 489.298 1696.75 527.833 1786.36 621.648C1898.07 738.598 1954.35 889.708 1946.73 1051.64C1944.59 1097.28 1936.38 1181.05 1901.5 1213.02C1843.28 1213.21 1784.45 1209.95 1726.46 1213.36C1719.8 1213.75 1715.74 1213.42 1715.65 1205.73C1719.15 1197.49 1741.97 1185.82 1747.17 1174.95C1747.85 1173.54 1777.65 1163.23 1772.6 1153.47C1749.75 1109.33 1725.04 1062.59 1685.88 1030.61C1649.51 1002.03 1630.95 1017.4 1600.2 1040.61C1561.15 1070.07 1535.82 1100.01 1516.22 1144.9C1513.4 1151.37 1508.24 1158.24 1505.26 1164.81C1500.31 1175.03 1488.08 1205.56 1482.31 1213.23C1473.19 1214.67 1450.69 1214.06 1440.36 1214.06L1363.64 1214.05L1107.4 1214.16C1099.57 1214.09 1089.69 1213.52 1083.97 1207.65C1082.2 1199.01 1111.7 1187.79 1118.86 1185.23C1120.29 1179.89 1129.21 1174.98 1134.03 1171.72C1147.54 1168.3 1162.02 1169.35 1172.34 1157.48C1175.36 1145.11 1163.75 1076.46 1160.57 1060.96C1148.42 1001.67 1110.91 942.653 1058.79 910.749C1056.18 909.157 1054.71 908.191 1052.08 908.842C1052.03 910.162 1051.87 915.842 1052.8 916.625C1072.55 933.317 1094.14 948.713 1106.42 972.269C1109.03 977.274 1113.74 987.931 1110.64 993.451C1106.98 999.963 1096.4 1007.36 1090.95 1012.68C1046.15 1051.53 994.92 1087.16 939.983 1110.14A289 289 0 0 1 902.064 1122.7C890.372 1125.74 882.435 1126.96 872.083 1131.3C845.704 1142.34 856.584 1156.85 852.923 1177.21C852.607 1178.7 849.506 1181.4 848.152 1181.33C833.075 1180.53 835.983 1141.94 816.1 1148.74C807.083 1151.82 804.595 1159.78 800.046 1166.09C789.26 1181.07 820.011 1197.19 812.895 1207.94C808.125 1210.43 800.253 1211.09 795.964 1206.96C779.995 1191.59 769.516 1184.56 765.559 1161.82C760.596 1133.32 776.605 1129.22 791.75 1108.99C819.348 1075.21 837.611 1042.28 851.388 1000.83C857.086 983.686 858.15 961.802 865.957 946.618C867.903 942.833 885.634 932.77 890.341 928.983C898.726 922.238 908.916 914.383 916.9 907.078C923.181 901.331 926.818 891.018 931.943 884.255C932.708 883.246 934.545 881.044 936.003 880.523L939.89 883.213C945.578 882.842 956.31 883.012 961.441 881.991C999.445 874.77 1028.28 851.077 1051.01 820.859C1052.84 818.436 1055.17 812.469 1057.49 808.83C1060.68 803.236 1067.54 793.291 1068.12 787.155C1068.15 786.784 1063.41 770.488 1062.86 768.676C1060.36 771.78 1056.55 782.637 1054.47 787.399C1041.86 821.833 993.606 864.302 956.549 867.465C916.923 870.846 931.059 863.534 903.108 894.874C882.864 917.571 851.456 938.242 819.902 936.244C806.876 935.419 788.903 933.008 775.931 929.648C771.309 928.433 760.237 920.343 756.241 919.683C720.558 913.796 744.266 889.859 754.619 872.009C759.357 863.84 781.758 825.258 782.214 815.821C776.567 811.96 771.858 803.666 767.829 798.014C736.713 754.363 758.422 696.181 792.94 661.501C769.093 638.864 748.214 600.111 781.61 575.167C790.886 568.239 789.415 567.211 802.162 567.652C811.955 567.991 820.509 570.136 829.036 575.572C856.162 597.418 869.33 596.072 903.515 584.543A326.3 326.3 0 0 0 993.897 536.946C1007.27 527.042 1026.06 512.21 1038.8 500.755C1060.64 481.123 1083.22 456.562 1111.63 445.482C1115.6 443.93 1125.91 442.971 1130.48 442.479ZM1370.66 1084.88C1373.09 1060.67 1376.73 1008.7 1394.92 990.22C1403.47 981.528 1412.56 986.78 1420.7 992.13C1437.28 1003.04 1465.29 1005.95 1485.08 1004.78C1493 1004.07 1510.84 997.654 1518.29 996.459L1519.26 995.002C1517.04 992.222 1505.79 989.774 1502.34 989.727C1479.76 989.425 1458.15 994.796 1436.46 984.416C1430.72 981.667 1425.76 982.083 1421.8 975.82C1415.54 974.277 1407.32 976.055 1402.45 974.683C1389.15 970.932 1373.07 959.967 1361.25 955.27C1354.23 966 1357.48 992.75 1355.74 1006.99C1349.42 1058.59 1341.13 1110.44 1318.5 1157.8C1311.57 1172.4 1297.29 1183.19 1311.9 1195.83C1312.46 1196.31 1313.9 1196.62 1314.53 1196.77C1314.88 1195.22 1315.26 1193.69 1315.66 1192.16L1320.41 1190.39C1327.31 1187.88 1363.41 1171.35 1366.46 1166.05C1367.56 1156.89 1366.04 1148.93 1366.24 1141.65C1366.51 1131.58 1368.14 1093.32 1370.66 1084.88ZM1010.96 1241.98L1056.01 1241.99L1056.01 1574.03L1013.96 1573.92C1014.04 1570.46 1013.4 1542.53 1012.39 1540.1C1008.64 1542.22 1005.52 1548.69 1002.43 1552.16C986.19 1570.41 963.016 1581.7 938.399 1581.33C930.332 1581.21 915.813 1578.7 909.041 1574.19C872.628 1556.12 850.36 1511.96 846.271 1470.62C843.579 1410.7 877.723 1350.15 940.428 1339.81C966.243 1335.55 1009 1364.58 1010.47 1364.54C1011.57 1352.97 1011 1332.77 1011 1320.4ZM961.679 1534.34C1008 1521.99 1011.39 1476.96 1011.14 1436.49C1011.11 1430.53 1013.23 1416.64 1008.71 1411.77C987.929 1394.16 975.394 1384.3 945.756 1385.02C923.694 1392.52 915.496 1397.76 903.404 1418.69C879.894 1459.38 902.766 1547.84 961.679 1534.34ZM488.454 1340.39C504.606 1335.95 548.095 1347.43 561.7 1357.34C645.865 1418.62 624.183 1555.97 517.78 1579.6C516.224 1579.73 514.446 1580.13 512.818 1580.34A99.23 99.23 0 0 1 438.016 1559.54C383.028 1516.46 375.425 1433.85 418.664 1379.7A104.65 104.65 0 0 1 488.454 1340.39ZM510.197 1537.84C530.482 1531.82 544.107 1521.59 554.29 1502.47C573.507 1466.39 568.041 1409.77 528.933 1388.97C516.052 1382.12 505.888 1381.77 491.748 1382.01C482.23 1385.63 475.59 1388.44 467.156 1395.21C424.12 1429.79 430.409 1509.96 480.259 1534.75C490.75 1539.96 498.869 1538.63 510.197 1537.84Z"/><path fill="rgb(110,110,110)" d="M1352.9 1244L1406.05 1244L1406.05 1288.5L1406.08 1387.39C1406.1 1433.54 1410.08 1511.95 1374.67 1545.93C1325.21 1593.38 1211.17 1594.36 1162.31 1544.98A89.1 89.1 0 0 1 1139.51 1505.13C1130.73 1471.4 1133.94 1423.72 1133.97 1387.78L1133.98 1244L1186.05 1244L1186.02 1385.15C1186.02 1416.34 1183.99 1451.57 1189.78 1481.78C1199.93 1534.65 1268.94 1549.04 1311.38 1527.26C1364.19 1500.16 1353.02 1430.72 1352.89 1381.66ZM1851.35 1347.26C1870.05 1343.37 1905.46 1350.1 1921.07 1360.72C1980.24 1400.97 1946.96 1473.32 1958.97 1530.33C1960.02 1535.33 1960.62 1537.74 1965.04 1540.58C1970.58 1541.65 1978.93 1540.35 1984.09 1538.14C1985.71 1541.3 1985.71 1572.8 1984.02 1574.9C1977.87 1582.53 1938.32 1581.59 1929.46 1576.26C1913.03 1566.37 1919.13 1560.32 1913.94 1546.24C1911.04 1545.58 1904.36 1554.8 1902.59 1557.13C1878.39 1588.98 1839.79 1593.68 1806.43 1571.35C1791.11 1563.82 1776.69 1542.27 1773.54 1525.54C1770.32 1507.6 1774.34 1489.1 1784.74 1474.12C1808.41 1440.08 1863.19 1439.34 1899.96 1432.98C1904.05 1432.27 1908.04 1431.33 1912.16 1430.61C1914.06 1421.24 1909.67 1413.38 1903.73 1406.5A52.52 52.52 0 0 0 1872.11 1388.95C1826.78 1381.68 1799.15 1419.93 1790.42 1419.33C1789.19 1412.77 1789.89 1380.17 1789.93 1371.65C1807.92 1362.09 1830.88 1350 1851.35 1347.26ZM1830.64 1534.1C1858.85 1552.41 1883.1 1546.31 1900.05 1517.6C1905.99 1507.54 1914.65 1479.6 1912.77 1468.64L1911.41 1468.41L1878.74 1474.47C1860.05 1477.78 1811.34 1482.78 1818.29 1513.66C1819.91 1520.82 1825.45 1528.9 1830.64 1534.1Z"/><path fill="rgb(3,161,241)" d="M184.46 1238.49C219.624 1233.63 272.304 1245.58 301.538 1266.76C304.363 1268.81 303.038 1316.34 303.019 1324.55C271.437 1290.1 210.258 1267.76 166.272 1291.27C35.217 1361.3 107.255 1599.97 266.567 1517.28L271.717 1514.3C280.083 1509.59 295.443 1495.53 301.303 1494.54C304.95 1501.43 302.289 1523.19 302.996 1531.73C304.57 1550.72 301.636 1550.7 285.623 1558.24C263.889 1568.46 241.524 1577.24 217.504 1580.2C130.628 1591.46 57.38 1520.27 48.07 1436.75C38.604 1347.72 88.41 1250.34 184.46 1238.49ZM631.961 1339.97L679.013 1339.98L678.945 1435.81C678.941 1457.37 677.968 1480.48 681.101 1501.52C683.473 1518.77 700.852 1537.3 719.03 1536.59C793.96 1533.65 785.12 1423.8 784.185 1371.73C783.995 1361.12 783.949 1350.58 783.992 1339.98L830.006 1339.98L830.006 1421.5L830.007 1576.03L785.955 1576.03C786.305 1565.08 784.93 1550.41 784.993 1538.15C775.198 1558.45 761.326 1570.11 740.145 1577.57C739.067 1577.94 717.581 1582.52 717.076 1582.5C693.86 1581.37 673.242 1577.31 656.122 1560.33C626.515 1530.96 631.926 1488.46 631.918 1450.01Z"/><path fill="rgb(110,110,110)" d="M1646.37 1344.28C1666.5 1340.24 1720.71 1349.14 1736.38 1362.71C1742.63 1368.12 1740.16 1403.99 1740.11 1412.82C1714.84 1398.94 1690.31 1385.49 1660.47 1385.42C1647.53 1385.39 1618.04 1392.76 1619.92 1409.97C1622.04 1429.35 1648.84 1432.68 1663.85 1436.24C1688.97 1442.2 1716.76 1448.79 1736.83 1465.99C1761.09 1486.83 1760.27 1524.91 1739.62 1547.89C1720.69 1568.88 1690.2 1580.6 1662.25 1582.05C1632.13 1582.62 1617.22 1577.08 1589.65 1565.25C1584.02 1562.84 1575.96 1560.28 1571.46 1556.56C1570.2 1550.32 1570.68 1511.67 1572.6 1507.23C1575.26 1507.67 1585 1513.85 1588.38 1515.99C1614.03 1533.67 1666.66 1552.21 1695.12 1529.89C1731.44 1501.41 1675.14 1483.47 1657.09 1478.16C1616.05 1466.11 1567.6 1460.92 1571.35 1406.84C1571.84 1399.73 1579.41 1382.87 1582.72 1376.29C1597.6 1355.61 1622.38 1348.53 1646.37 1344.28ZM1529.36 1344.28C1534.83 1343.1 1554.88 1343.68 1560.49 1346.69C1561.51 1357.35 1561.34 1380.86 1560.87 1391.74C1557.17 1394.9 1543.48 1386.91 1537.09 1387.24C1458.99 1391.35 1477.32 1525.37 1477.03 1579L1433.87 1579L1432.29 1578.34C1431.37 1572.05 1431.91 1559.68 1431.94 1552.69L1431.96 1510.21L1431.93 1346.99L1474.11 1346.99C1473.93 1355.61 1473.76 1365.15 1476.29 1373.15C1477.05 1375.57 1474.24 1381.02 1477.75 1383.48C1479.34 1379.56 1483.04 1369.92 1485.36 1367.01C1497.44 1351.85 1511.38 1347.43 1529.36 1344.28Z"/><path fill="rgb(3,161,241)" d="M327.977 1238.98L369.023 1238.98L369.023 1582.01L327.977 1582.01Z"/><path fill="rgb(110,110,110)" d="M1212.64 0L1270.36 0C1270.92 0.323 1299.3 2.724 1303.12 3.207C1414.01 17.205 1518.18 70.882 1597.54 149.034C1632.78 184.367 1675.29 250.372 1697.43 295.782A576 576 0 0 1 1726.05 366.7C1728.26 373.384 1729.24 385.92 1732.59 388.463C1753.97 387.523 1770.06 386.744 1791.56 388.725A292.6 292.6 0 0 1 1963.5 465.168C2015.04 512.205 2042.36 577.307 2047.02 647C2047.19 649.565 2046.61 652.668 2048 654.638L2048 706.361C2046.4 708.91 2046.93 718.31 2046.54 722.175C2040.71 779.87 2023.87 838.075 1994.94 888.504C1992.33 893.059 1987.46 903.967 1983.34 906.671C1983.02 906.131 1979.84 891.781 1979.46 889.828C1941.12 690.968 1810.49 519.689 1610.96 466.422A650.2 650.2 0 0 0 1397.76 446.731A2015 2015 0 0 0 1343.74 451.423C1342.22 451.576 1323 453.825 1322.76 453.724C1251.45 423.739 1153.85 380.071 1078.46 417.557C1071.22 421.157 1056.43 433.906 1050.18 438.519C991.319 481.974 910.882 578.683 830.765 533.988C811.922 523.476 774.455 523.33 756.181 534.308C734.531 543.065 729.079 566.964 722.367 578.872C709.501 601.698 738.842 660.978 739.194 660.47C711.708 700.142 689.116 747.155 717.349 794.393C721.929 802.056 738.328 820.298 734.841 829.055C727.232 857.979 698.968 877.972 689.573 905.127C687.269 941.169 739.45 960.843 767.722 967.082C772.351 968.104 785.746 969.143 787.886 970.108C793.99 969.997 807.3 970.402 813.051 972.101C809.392 973.817 702.854 972.957 690.134 972.96L358.965 973.031C325.135 973.03 291.07 973.548 257.282 971.884C240.006 971.033 217.377 973.72 200.779 971.725C193.605 970.901 181.693 967.172 174.367 965.17C83.914 940.447 14.337 867.782 1.924 773.575C1.527 770.558 1.102 760.18 0 758.359L0 715.641L0.753 714.667C1.375 682.502 15.621 640.538 30.608 611.643C62.706 549.755 113.715 510.742 179.792 489.669C227.894 474.328 261.334 481.712 308.255 495.332C315.429 497.414 336.854 502.726 342.883 506.051Q345.421 507.44 347.912 508.91L349.44 508.442C352.448 502.421 351.822 495.347 353.503 488.934C358.244 470.85 363.702 454.094 370.581 436.821C397.973 368.039 437.051 329.1 499.07 289.803C574.674 241.898 651.697 223.909 740.446 235.093C756.901 237.166 773.187 242.162 789.106 245.657Q790.889 246.043 792.681 246.385C793.064 246.456 795.652 246.954 795.684 246.938C797.684 245.906 802.448 236.848 803.433 235.14C882.503 98.04 1033.59 19.358 1187.58 2.008C1191.5 1.566 1210.49 1.362 1212.64 0Z"/><path fill="rgb(185,185,185)" d="M787.886 970.108C793.99 969.997 807.3 970.402 813.051 972.101C809.392 973.817 702.854 972.957 690.134 972.96L358.965 973.031C325.135 973.03 291.07 973.548 257.282 971.884C240.006 971.033 217.377 973.72 200.779 971.725C211.732 970.657 243.084 971.548 256.138 971.451L618.757 972.248L727.797 972.278C735.949 972.262 783.385 973.461 787.886 970.108Z"/></svg>